<svg width="433" height="142" xmlns="http://www.w3.org/2000/svg">

 <g>
  <title>Layer 1</title>
  <g>
   <path fill="#2FAC66" d="m11.16,3.16l-11.16,0l0,22.33l11.16,0c2.86,0 5.72,1.09 7.9,3.27c2.18,2.18 3.27,5.03 3.27,7.89l0,11.17c0,2.85 -1.09,5.72 -3.27,7.89c-2.18,2.18 -5.04,3.26 -7.9,3.26l-11.16,0l0,22.33l11.16,0c2.86,0 5.72,1.08 7.9,3.26c2.18,2.19 3.27,5.05 3.27,7.9l0,11.16c0,2.87 -1.09,5.73 -3.27,7.9c-2.18,2.18 -5.04,3.27 -7.9,3.27l-11.16,0l0,22.33l11.16,0c8.57,0 17.15,-3.27 23.69,-9.82c6.54,-6.55 9.81,-15.12 9.81,-23.69l0,-11.16c0,-8 -2.85,-15.99 -8.54,-22.33c5.69,-6.35 8.54,-14.34 8.54,-22.33l0,-11.17c0,-8.57 -3.27,-17.15 -9.81,-23.69c-6.54,-6.5 -15.12,-9.77 -23.69,-9.77z" class="st0"/>
   <path fill="#1D71B8" d="m148.97,3.16l-11.17,0l0,22.33l11.17,0c2.86,0 5.72,1.09 7.89,3.27c2.18,2.18 3.27,5.03 3.27,7.89l0,66.98c0,2.87 -1.09,5.73 -3.27,7.9c-2.18,2.18 -5.04,3.27 -7.89,3.27l-11.17,0l0,22.33l11.17,0c8.57,0 17.15,-3.27 23.68,-9.82c6.55,-6.55 9.81,-15.12 9.81,-23.69l0,-66.98c0,-8.57 -3.27,-17.15 -9.81,-23.69c-6.53,-6.52 -15.1,-9.79 -23.68,-9.79z" class="st1"/>
   <path fill="#00A19A" d="m117.08,36.66l0,11.17l-22.33,0l0,-11.17c0,-2.86 -1.09,-5.72 -3.27,-7.89c-2.18,-2.18 -5.04,-3.27 -7.89,-3.27l-11.18,0l0,-22.33l11.17,0c8.57,0 17.14,3.27 23.68,9.82c6.55,6.52 9.82,15.1 9.82,23.67zm-11.17,40.05l-28.87,-28.88l-4.63,-4.62l0,31.58l17.71,17.71c2.94,2.93 4.63,7.01 4.62,11.16c0,2.86 -1.09,5.72 -3.27,7.9c-2.18,2.17 -5.04,3.26 -7.89,3.26c-2.86,0 -11.17,0.01 -11.17,0.01l0,22.33c0,0 7.39,0 11.17,0l0,0l0,0c8.57,0 17.14,-3.27 23.68,-9.81c6.54,-6.55 9.81,-15.12 9.81,-23.69l0,0c0,-10.12 -4.01,-19.8 -11.16,-26.95z" class="st2"/>
   <g>
    <path fill="#2FAC66" d="m265.8,9.86l9.19,0c3.83,0 5.75,0.57 7.23,2.11c1.44,1.48 2.25,4.07 2.25,7.13c0,3.69 -0.91,5.98 -2.87,7.13c2.25,1.44 3.3,4.12 3.3,8.47c0,3.3 -0.86,5.98 -2.44,7.52c-1.34,1.34 -2.97,1.82 -6.13,1.82l-10.53,0l0,-34.18zm8.95,14.31c2.49,0 3.54,-1.39 3.54,-4.64c0,-3.49 -0.96,-4.74 -3.64,-4.74l-2.68,0l0,9.38l2.78,0zm0,14.94c1.72,0 2.44,-0.24 3.02,-0.96c0.62,-0.77 0.96,-2.2 0.96,-3.93c0,-3.78 -0.96,-5.12 -3.64,-5.12l-3.11,0l0,10.01l2.77,0z" class="st0"/>
    <path fill="#2FAC66" d="m295.49,9.86l0,23.51c0,4.79 0.76,6.18 3.35,6.18c2.87,0 3.59,-1.24 3.59,-6.18l0,-23.51l6.18,0l0,23.51c0,4.31 -0.38,6.13 -1.63,7.85c-1.68,2.35 -4.02,3.3 -7.99,3.3c-4.26,0 -6.8,-1.2 -8.43,-3.83c-0.96,-1.63 -1.25,-3.4 -1.25,-7.32l0,-23.51l6.18,0z" class="st0"/>
    <path fill="#2FAC66" d="m318.19,33.75c0.05,4.21 1.1,5.84 3.64,5.84c2.59,0 3.69,-1.48 3.69,-5.07c0,-1.58 -0.29,-2.68 -0.96,-3.4c-0.72,-0.77 -0.91,-0.86 -4.16,-1.92c-5.22,-1.72 -7.28,-4.5 -7.28,-9.81c0,-6.51 2.97,-9.96 8.62,-9.96c3.78,0 6.37,1.48 7.8,4.4c0.72,1.44 1.05,3.06 1.1,5.84l-5.65,0c-0.24,-3.97 -0.96,-5.27 -3.06,-5.27c-1.96,0 -2.92,1.58 -2.92,4.74c0,2.68 1.1,3.93 4.45,5.12c3.45,1.2 4.21,1.53 5.41,2.59c1.77,1.53 2.54,3.83 2.54,7.47c0,6.8 -3.21,10.25 -9.48,10.25c-4.02,0 -6.85,-1.53 -8.28,-4.55c-0.76,-1.48 -1.05,-3.16 -1.1,-6.27l5.64,0z" class="st0"/>
    <path fill="#2FAC66" d="m335.49,9.86l6.18,0l0,34.18l-6.18,0l0,-34.18z" class="st0"/>
    <path fill="#2FAC66" d="m347.17,9.86l6.13,0l8.23,21.78l0,-21.78l5.75,0l0,34.18l-5.79,0l-8.57,-22.07l0,22.07l-5.75,0l0,-34.18z" class="st0"/>
    <path fill="#2FAC66" d="m372.84,9.86l16.47,0l0,5.07l-10.29,0l0,9.34l8.66,0l0,5.07l-8.66,0l0,9.62l10.53,0l0,5.07l-16.71,0l0,-34.17z" class="st0"/>
    <path fill="#2FAC66" d="m398.13,33.75c0.05,4.21 1.1,5.84 3.64,5.84c2.59,0 3.69,-1.48 3.69,-5.07c0,-1.58 -0.29,-2.68 -0.96,-3.4c-0.72,-0.77 -0.91,-0.86 -4.16,-1.92c-5.22,-1.72 -7.28,-4.5 -7.28,-9.81c0,-6.51 2.97,-9.96 8.62,-9.96c3.78,0 6.37,1.48 7.8,4.4c0.72,1.44 1.05,3.06 1.1,5.84l-5.65,0c-0.24,-3.97 -0.96,-5.27 -3.06,-5.27c-1.96,0 -2.92,1.58 -2.92,4.74c0,2.68 1.1,3.93 4.45,5.12c3.45,1.2 4.21,1.53 5.41,2.59c1.77,1.53 2.54,3.83 2.54,7.47c0,6.8 -3.21,10.25 -9.48,10.25c-4.02,0 -6.85,-1.53 -8.28,-4.55c-0.76,-1.48 -1.05,-3.16 -1.1,-6.27l5.64,0z" class="st0"/>
    <path fill="#2FAC66" d="m420.26,33.75c0.05,4.21 1.1,5.84 3.64,5.84c2.59,0 3.69,-1.48 3.69,-5.07c0,-1.58 -0.29,-2.68 -0.96,-3.4c-0.72,-0.77 -0.91,-0.86 -4.16,-1.92c-5.22,-1.72 -7.28,-4.5 -7.28,-9.81c0,-6.51 2.97,-9.96 8.62,-9.96c3.78,0 6.37,1.48 7.8,4.4c0.72,1.44 1.05,3.06 1.1,5.84l-5.65,0c-0.24,-3.97 -0.96,-5.27 -3.06,-5.27c-1.96,0 -2.92,1.58 -2.92,4.74c0,2.68 1.1,3.93 4.45,5.12c3.45,1.2 4.21,1.53 5.41,2.59c1.77,1.53 2.54,3.83 2.54,7.47c0,6.8 -3.21,10.25 -9.48,10.25c-4.02,0 -6.85,-1.53 -8.28,-4.55c-0.76,-1.48 -1.05,-3.16 -1.1,-6.27l5.64,0z" class="st0"/>
    <path fill="#00A19A" d="m269.63,77.65c0.05,4.21 1.1,5.84 3.64,5.84c2.59,0 3.69,-1.48 3.69,-5.07c0,-1.58 -0.29,-2.68 -0.96,-3.4c-0.72,-0.77 -0.91,-0.86 -4.16,-1.92c-5.22,-1.72 -7.28,-4.5 -7.28,-9.81c0,-6.51 2.97,-9.96 8.62,-9.96c3.78,0 6.37,1.48 7.8,4.4c0.72,1.44 1.05,3.06 1.1,5.84l-5.65,0c-0.24,-3.97 -0.96,-5.27 -3.06,-5.27c-1.96,0 -2.92,1.58 -2.92,4.74c0,2.68 1.1,3.93 4.45,5.12c3.45,1.2 4.21,1.53 5.41,2.59c1.77,1.53 2.54,3.83 2.54,7.47c0,6.8 -3.21,10.25 -9.48,10.25c-4.02,0 -6.85,-1.53 -8.28,-4.55c-0.76,-1.48 -1.05,-3.16 -1.1,-6.27l5.64,0z" class="st2"/>
    <path fill="#00A19A" d="m293.15,87.94l-6.18,0l0,-34.18l8.23,0c4.12,0 6.32,0.77 7.85,2.78c1.44,1.82 2.11,4.41 2.11,8.09c0,3.97 -0.82,6.75 -2.44,8.57c-1.58,1.68 -3.69,2.35 -7.52,2.35l-2.06,0l0,12.39l0.01,0zm2.1,-17.38c2.78,0 3.73,-1.58 3.73,-6.13c0,-1.96 -0.33,-3.64 -0.96,-4.6c-0.52,-0.86 -1.29,-1.15 -2.78,-1.15l-2.3,0l0,11.87l2.31,0l0,0.01z" class="st2"/>
    <path fill="#00A19A" d="m309.1,53.76l16.47,0l0,5.07l-10.29,0l0,9.34l8.66,0l0,5.07l-8.66,0l0,9.62l10.53,0l0,5.07l-16.71,0l0,-34.17z" class="st2"/>
    <path fill="#00A19A" d="m329.88,53.76l16.47,0l0,5.07l-10.29,0l0,9.34l8.66,0l0,5.07l-8.66,0l0,9.62l10.53,0l0,5.07l-16.71,0l0,-34.17z" class="st2"/>
    <path fill="#00A19A" d="m350.62,53.76l8.47,0c7.8,-0.14 10.87,2.82 10.73,10.44l0,13.31c0.14,7.61 -2.92,10.58 -10.73,10.44l-8.47,0l0,-34.19zm8.71,29.25c3.54,-0.05 4.26,-1.15 4.31,-6.56l0,-11.2c-0.05,-5.41 -0.77,-6.51 -4.31,-6.56l-2.54,0l0,24.32l2.54,0z" class="st2"/>
    <path fill="#1D71B8" d="m265.8,97.67l8.47,0c7.8,-0.14 10.87,2.82 10.73,10.44l0,13.31c0.14,7.61 -2.92,10.58 -10.73,10.44l-8.47,0l0,-34.19zm8.71,29.25c3.54,-0.05 4.26,-1.15 4.31,-6.56l0,-11.2c-0.05,-5.41 -0.77,-6.51 -4.31,-6.56l-2.54,0l0,24.32l2.54,0z" class="st1"/>
    <path fill="#1D71B8" d="m294.96,125.05l-1.48,6.8l-6.66,0l9.67,-34.18l5.12,0l9.67,34.18l-6.66,0l-1.44,-6.8l-8.22,0zm4.12,-19.01l-3.06,14.12l6.08,0l-3.02,-14.12z" class="st1"/>
    <path fill="#1D71B8" d="m316.04,102.74l-6.03,0l0,-5.07l18.24,0l0,5.07l-6.03,0l0,29.11l-6.18,0l0,-29.11z" class="st1"/>
    <path fill="#1D71B8" d="m331.84,97.67l6.18,0l0,34.18l-6.18,0l0,-34.18z" class="st1"/>
    <path fill="#1D71B8" d="m343.53,97.67l6.13,0l8.23,21.78l0,-21.78l5.75,0l0,34.18l-5.79,0l-8.57,-22.07l0,22.07l-5.75,0l0,-34.18z" class="st1"/>
    <path fill="#1D71B8" d="m378.64,113.13l9.57,0l0,6.18c0,4.69 -0.48,7.28 -1.68,9.19c-1.63,2.59 -4.21,3.83 -8.14,3.83c-3.74,0 -6.51,-1.2 -8.14,-3.49c-1.25,-1.72 -1.77,-4.26 -1.77,-8.43l0,-11.2c0,-4.64 0.62,-7.23 2.15,-9.05c1.67,-1.92 4.16,-2.92 7.56,-2.92c3.93,0 6.66,1.48 8.19,4.4c0.72,1.44 1,3.06 1.1,5.84l-5.65,0c-0.29,-4.07 -1.05,-5.27 -3.49,-5.27c-2.82,0 -3.69,1.72 -3.69,7.37l0,10.44c0,5.55 0.91,7.33 3.78,7.33c2.73,0 3.69,-1.77 3.69,-6.7l0,-2.78l-3.49,0l0,-4.74l0.01,0z" class="st1"/>
   </g>
   <path fill="#00A19A" d="m223.63,141.53c-2.42,0 -4.38,-1.96 -4.38,-4.38l0,-132.77c0,-2.42 1.96,-4.38 4.38,-4.38s4.38,1.96 4.38,4.38l0,132.77c0,2.43 -1.96,4.38 -4.38,4.38z" class="st2"/>
  </g>
 </g>
</svg>