<svg width="181" height="134" xmlns="http://www.w3.org/2000/svg">

 <g>
  <title>Layer 1</title>
  <g stroke="null">
   <path stroke="null" fill="#2FAC66" d="m11.16,0l-11.16,0l0,22.33l11.16,0c2.86,0 5.72,1.09 7.9,3.27c2.18,2.18 3.27,5.03 3.27,7.89l0,11.17c0,2.85 -1.09,5.72 -3.27,7.89c-2.18,2.18 -5.04,3.26 -7.9,3.26l-11.16,0l0,22.33l11.16,0c2.86,0 5.72,1.08 7.9,3.26c2.18,2.19 3.27,5.05 3.27,7.9l0,11.16c0,2.87 -1.09,5.73 -3.27,7.9c-2.18,2.18 -5.04,3.27 -7.9,3.27l-11.16,0l0,22.33l11.16,0c8.57,0 17.15,-3.27 23.69,-9.82c6.54,-6.55 9.81,-15.12 9.81,-23.69l0,-11.16c0,-8 -2.85,-15.99 -8.54,-22.33c5.69,-6.35 8.54,-14.34 8.54,-22.33l0,-11.17c0,-8.57 -3.27,-17.15 -9.81,-23.69c-6.54,-6.5 -15.12,-9.77 -23.69,-9.77z" class="st0"/>
   <path stroke="null" fill="#1D71B8" d="m147.97,0l-11.17,0l0,22.33l11.17,0c2.86,0 5.72,1.09 7.89,3.27c2.18,2.18 3.27,5.03 3.27,7.89l0,66.98c0,2.87 -1.09,5.73 -3.27,7.9c-2.18,2.18 -5.04,3.27 -7.89,3.27l-11.17,0l0,22.33l11.17,0c8.57,0 17.15,-3.27 23.68,-9.82c6.55,-6.55 9.81,-15.12 9.81,-23.69l0,-66.98c0,-8.57 -3.27,-17.15 -9.81,-23.69c-6.53,-6.52 -15.1,-9.79 -23.68,-9.79z" class="st1"/>
   <path stroke="null" fill="#00A19A" d="m117.08,33.5l0,11.17l-22.33,0l0,-11.17c0,-2.86 -1.09,-5.72 -3.27,-7.89c-2.18,-2.18 -5.04,-3.27 -7.89,-3.27l-11.18,0l0,-22.33l11.17,0c8.57,0 17.14,3.27 23.68,9.82c6.55,6.52 9.82,15.1 9.82,23.67zm-11.17,40.05l-28.87,-28.88l-4.63,-4.62l0,31.58l17.71,17.71c2.94,2.93 4.63,7.01 4.62,11.16c0,2.86 -1.09,5.72 -3.27,7.9c-2.18,2.17 -5.04,3.26 -7.89,3.26c-2.86,0 -11.17,0.01 -11.17,0.01l0,22.33c0,0 7.39,0 11.17,0l0,0l0,0c8.57,0 17.14,-3.27 23.68,-9.81c6.54,-6.55 9.81,-15.12 9.81,-23.69l0,0c0,-10.12 -4.01,-19.8 -11.16,-26.95z" class="st2"/>
  </g>
 </g>
</svg>